<?xml version="1.0" encoding="utf-8"?>
<!-- Generator: Adobe Illustrator 16.0.0, SVG Export Plug-In . SVG Version: 6.00 Build 0)  -->
<!DOCTYPE svg PUBLIC "-//W3C//DTD SVG 1.1//EN" "http://www.w3.org/Graphics/SVG/1.1/DTD/svg11.dtd">
<svg version="1.1" id="Layer_1" xmlns="http://www.w3.org/2000/svg" xmlns:xlink="http://www.w3.org/1999/xlink" x="0px" y="0px"
	 width="283.46px" height="283.46px" viewBox="0 0 283.46 283.46" enable-background="new 0 0 283.46 283.46" xml:space="preserve">
<g opacity="0.5">
	<path d="M163.755,226.242"/>
	<path d="M163.757,210.375c2.699-1.169,5.172-2.636,7.059-4.474v-12.988c-1.822,1.757-4.309,3.108-7.061,4.147v13.314H163.757z"/>
	<path d="M161.427,211.297c-3.777,1.356-7.783,2.212-11.141,2.746c0-0.002,0-14.011,0-14.011l0.002,0.002
		c3.369-0.377,7.385-1.035,11.137-2.182C161.425,197.853,161.425,211.297,161.427,211.297z"/>
	<path d="M170.816,219.424c-2.137,1.704-4.557,3.088-7.061,4.208v-10.106c2.506-1.121,4.924-2.504,7.061-4.207V219.424z"/>
	<path d="M150.287,217.445c0,0,0,10.104,0.002,10.104c3.285-0.559,7.238-1.469,11.137-2.951V214.49
		C157.527,215.974,153.574,216.887,150.287,217.445z"/>
	<path d="M185.835,87.853l34.488-34.49c0,0-4.211-17.495,8.93-19.78c0,0,10.852-1.716,10.852,10.141l-0.141,4.57l4.451-0.17
		c11.854,0,10.143,10.855,10.143,10.855c-2.285,13.138-19.781,8.925-19.781,8.925l-35.404,35.403
		C199.373,103.307,194.162,92.821,185.835,87.853z"/>
	<path d="M201.849,182.072l34.721,34.723c0,0,17.615-4.242,19.916,8.988c0,0,1.727,10.926-10.209,10.926l-4.6-0.143l0.17,4.484
		c0,11.934-10.926,10.209-10.926,10.209c-13.23-2.301-8.988-19.917-8.988-19.917l-35.641-35.642
		C186.292,195.701,195.943,190.373,201.849,182.072z"/>
	<path d="M121.051,226.242"/>
	<path d="M142.404,241.69c-25.66,0-28.412-18.424-28.412-18.424s11.153,8.754,28.412,8.754c17.258,0,28.412-8.754,28.412-8.754
		S168.062,241.69,142.404,241.69z"/>
	<path d="M142.404,130.703c-51.917,0-59.752,9.412-59.752,9.412c-23.437,0-43.765-1.13-43.765-1.13
		c17.507-10.164,47.768-18.242,47.768-18.242c7.557-23.581,29.659-40.651,55.75-40.651c26.09,0,48.193,17.07,55.748,40.651
		c0,0,30.262,8.078,47.77,18.242c0,0-20.332,1.13-43.766,1.13C202.156,140.115,194.32,130.703,142.404,130.703z M192.666,119.576
		c0,0,1.232-18.002-50.262-18.002c-51.494,0-50.263,18.002-50.263,18.002c8.179-1.53,25.334-4.025,50.263-4.025
		C167.33,115.55,184.486,118.045,192.666,119.576z"/>
	<path d="M121.049,210.375c-2.699-1.169-5.171-2.636-7.057-4.474v-12.988c1.819,1.757,4.309,3.108,7.059,4.147v13.314H121.049z"/>
	<path d="M123.381,211.297c3.775,1.356,7.778,2.212,11.137,2.746c0-0.002,0-14.011,0-14.011v0.002
		c-3.368-0.377-7.383-1.035-11.135-2.182C123.383,197.853,123.383,211.297,123.381,211.297z"/>
	<path d="M142.404,214.897c0,0-2.251-0.09-5.555-0.518l0,0v-14.12v0.002c3.3,0.278,5.555,0.276,5.555,0.276s2.254,0.002,5.553-0.276
		v-0.002v14.12l0,0C144.652,214.807,142.404,214.897,142.404,214.897z"/>
	<path d="M113.992,219.424c2.136,1.704,4.555,3.088,7.059,4.208v-10.106c-2.506-1.121-4.927-2.504-7.059-4.207V219.424z"/>
	<path d="M134.518,217.445v10.104c-3.285-0.559-7.237-1.469-11.135-2.951V214.49C127.278,215.974,131.23,216.887,134.518,217.445z"
		/>
	<path d="M142.404,228.419c0,0-2.217-0.06-5.553-0.514c-0.002,0-0.002-10.105,0-10.105c3.336,0.454,5.553,0.514,5.553,0.514
		s2.213-0.06,5.551-0.514c0.002,0,0.002,10.105,0,10.105C144.617,228.36,142.404,228.419,142.404,228.419z"/>
	<path d="M98.973,87.853L64.48,53.363c0,0,4.215-17.495-8.926-19.78c0,0-10.853-1.716-10.853,10.141l0.14,4.57l-4.45-0.17
		c-11.854,0-10.144,10.855-10.144,10.855c2.286,13.138,19.783,8.925,19.783,8.925l35.404,35.403
		C85.436,103.307,90.645,92.821,98.973,87.853z"/>
	<path d="M82.959,182.072l-34.725,34.723c0,0-17.612-4.242-19.914,8.988c0,0-1.728,10.926,10.21,10.926l4.601-0.143l-0.172,4.484
		c0,11.934,10.928,10.209,10.928,10.209c13.229-2.301,8.987-19.917,8.987-19.917l35.642-35.642
		C98.516,195.701,88.862,190.373,82.959,182.072z"/>
	<path d="M142.404,197.15c-31.011,0-56.391-24.119-58.4-54.622c0,0,8.6-9.049,58.4-9.049c49.801,0,58.4,9.049,58.4,9.049
		C198.794,173.031,173.416,197.15,142.404,197.15z M148.933,157.602c0,10.673,8.652,19.321,19.322,19.321
		c10.672,0,19.324-8.648,19.324-19.321c0-10.671-8.652-19.323-19.324-19.323C157.585,138.279,148.933,146.931,148.933,157.602z
		 M97.228,157.602c0,10.673,8.651,19.321,19.324,19.321c10.671,0,19.322-8.648,19.322-19.321c0-10.671-8.651-19.323-19.322-19.323
		C105.879,138.279,97.228,146.931,97.228,157.602z M136.337,182.99c0,3.351,2.716,6.066,6.067,6.066c3.35,0,6.064-2.716,6.064-6.066
		s-2.715-6.066-6.064-6.066C139.053,176.923,136.337,179.639,136.337,182.99z"/>
</g>
</svg>
