<?xml version="1.0" encoding="utf-8"?>
<!-- Generator: Adobe Illustrator 19.0.0, SVG Export Plug-In . SVG Version: 6.00 Build 0)  -->
<svg version="1.1"
	 id="svg2" xmlns:inkscape="http://www.inkscape.org/namespaces/inkscape" xmlns:sodipodi="http://sodipodi.sourceforge.net/DTD/sodipodi-0.dtd" xmlns:dc="http://purl.org/dc/elements/1.1/" xmlns:cc="http://creativecommons.org/ns#" xmlns:svg="http://www.w3.org/2000/svg" xmlns:rdf="http://www.w3.org/1999/02/22-rdf-syntax-ns#" sodipodi:docname="luffy.svg" inkscape:version="0.47 r22583"
	 xmlns="http://www.w3.org/2000/svg" xmlns:xlink="http://www.w3.org/1999/xlink" x="0px" y="0px" viewBox="-105 197 400 400"
	 style="enable-background:new -105 197 400 400;" xml:space="preserve">
<style type="text/css">
	.st0{fill:#FFFFFF;stroke:#000000;stroke-linecap:round;}
	.st1{fill:#FFFFFF;stroke:#000000;stroke-width:1.2498;stroke-linecap:round;}
	.st2{fill:#FFFFFF;stroke:#000000;}
	.st3{fill:#FFF419;stroke:#000000;}
	.st4{fill:#FF1919;stroke:#000000;}
	.st5{fill:#231F20;stroke:#000000;}
</style>
<defs>
	
	
		<inkscape:perspective  id="perspective10" inkscape:vp_y="0 : 1000 : 0" sodipodi:type="inkscape:persp3d" inkscape:vp_x="0 : 0.5 : 1" inkscape:vp_z="1 : 0.5 : 1" inkscape:persp3d-origin="0.5 : 0.33333333 : 1">
		</inkscape:perspective>
</defs>
<sodipodi:namedview  id="namedview4" inkscape:cx="72.748627" guidetolerance="10" gridtolerance="10" objecttolerance="10" inkscape:zoom="2.36" inkscape:cy="179.18256" bordercolor="#666666" borderopacity="1" showgrid="false" pagecolor="#ffffff" inkscape:current-layer="svg2" inkscape:window-maximized="1" inkscape:window-y="-8" inkscape:window-x="-8" inkscape:window-height="1002" inkscape:window-width="1280" inkscape:pageshadow="2" inkscape:pageopacity="0">
	</sodipodi:namedview>
<g id="base">
	<path id="os" class="st0" d="M232,221.5c-9.1,0-16.5,7.4-16.5,16.5c0,4.3,1.7,8.2,4.4,11.2c0.9,0.9,1.8,1.7,2.6,2.6l-68.3,68.3
		c-16.4-12.7-37-20.3-59.3-20.3c-22.7,0-43.5,7.8-60,20.9l-68.3-68.3c0.7-0.7,1.3-1.3,2-2c2.7-2.9,4.4-6.9,4.4-11.2
		c0-9.1-7.4-16.5-16.5-16.5s-16.5,7.4-16.5,16.5c0,1.9,0.3,3.7,0.9,5.4c-1.7-0.6-3.5-0.9-5.4-0.9c-9.1,0-16.5,7.4-16.5,16.5
		c0,9.1,7.4,16.5,16.5,16.5c4.3,0,8.2-1.7,11.2-4.4c0.9-0.9,1.7-1.8,2.6-2.6l68.5,68.5C5.3,354.4-1.9,374.6-1.9,396.6
		c0,22.3,7.6,42.9,20.3,59.3l-69.3,69.3c-0.5-0.5-0.9-0.9-1.4-1.4c-2.9-2.7-6.9-4.4-11.2-4.4c-9.1,0-16.5,7.4-16.5,16.5
		s7.4,16.5,16.5,16.5c1.9,0,3.7-0.3,5.4-0.9c-0.6,1.7-0.9,3.5-0.9,5.4c0,9.1,7.4,16.5,16.5,16.5s16.5-7.4,16.5-16.5
		c0-4.3-1.7-8.2-4.4-11.2c-1.1-1.1-2.1-2.2-3.2-3.2l69.3-69.3c16.3,12.6,36.8,20.1,59.1,20.1c21.9,0,42.1-7.3,58.3-19.6l69.3,69.3
		c-0.5,0.5-0.9,0.9-1.4,1.4c-2.7,2.9-4.4,6.9-4.4,11.2c0,9.1,7.4,16.5,16.5,16.5s16.5-7.4,16.5-16.5c0-1.9-0.3-3.7-0.9-5.4
		c1.7,0.6,3.5,0.9,5.4,0.9c9.1,0,16.5-7.4,16.5-16.5s-7.4-16.5-16.5-16.5c-4.3,0-8.2,1.7-11.2,4.4c-1.1,1.1-2.2,2.1-3.2,3.2
		l-69.1-69.1c13.1-16.5,20.9-37.3,20.9-60c0-22.3-7.5-42.7-20.2-59.1l68.3-68.3c0.7,0.7,1.3,1.3,2,2c2.9,2.7,6.9,4.4,11.2,4.4
		c9.1,0,16.5-7.4,16.5-16.5s-7.4-16.5-16.5-16.5c-1.9,0-3.7,0.3-5.4,0.9c0.6-1.7,0.9-3.5,0.9-5.4C248.5,228.9,241.1,221.5,232,221.5
		z"/>
	<path id="machoire" class="st1" d="M51.5,540.5c5.7,17.8,22.3,30.8,42,30.8c19.5,0,35.8-12.6,41.8-30c-3.3,0.9-6.6,1.9-10.1,2.6
		c-4.9,1-9.8,1.8-14.9,2.3S100.2,547,95,547s-10.3-0.3-15.3-0.8s-10-1.3-14.9-2.3C60.3,543,55.8,541.9,51.5,540.5z"/>
	<g id="dents">
		<path id="dent_1" class="st1" d="M120.1,519.5l3.1,24.8c0.7-0.1,1.4-0.2,2.1-0.3c3.4-0.7,6.7-1.7,10.1-2.6
			c1.6-4.5,2.6-9.3,2.6-14.3c0-3.1-0.3-6.2-1-9.2l-0.5-3c-1.4,0.5-2.8,1.1-4.2,1.5C128.2,517.6,124.3,518.6,120.1,519.5
			C120.2,519.5,120.1,519.5,120.1,519.5L120.1,519.5z"/>
		<path id="dent_2" class="st1" d="M102.7,521.6l1.6,24.9c2-0.1,4.1-0.1,6.1-0.3c4.3-0.4,8.6-1.2,12.8-2l-3.1-24.8
			c-4,0.8-8.1,1.5-12.3,1.9C106.1,521.5,104.4,521.5,102.7,521.6z"/>
		<path id="dent_3" class="st1" d="M79.3,546.2c0.1,0,0.2,0.1,0.3,0.1c5,0.5,10.2,0.8,15.3,0.8c3.1,0,6.2-0.3,9.3-0.5l-1.6-24.9
			c-2.5,0.2-5.1,0.4-7.7,0.4c-4.3,0-8.6-0.2-12.8-0.7c-0.4,0-0.7-0.1-1.1-0.2L79.3,546.2z"/>
		<path id="dent_4" class="st1" d="M64.4,518.1l-2.9,25c1.1,0.3,2.2,0.6,3.3,0.8c4.8,1,9.6,1.7,14.5,2.2l1.8-25
			c-3.8-0.4-7.6-1-11.3-1.7C68,519.1,66.2,518.5,64.4,518.1z"/>
		<path id="dent_5" class="st1" d="M64.4,518.1c-2.2-0.6-4.4-1-6.6-1.7c-2.4-0.7-4.7-1.7-7-2.5l-0.5,2.9c-0.8,3.3-1.2,6.7-1.2,10.3
			c0,4.8,1,9.2,2.3,13.5c3.3,1,6.7,1.8,10,2.6L64.4,518.1z"/>
		<path id="dent_6" class="st1" d="M117,494.5l3.1,25c0,0,0.1,0,0.1,0c4.1-0.8,8.1-1.9,12-3.1c1.4-0.4,2.8-1,4.2-1.5l-4.4-25
			c-2.4,0.9-4.8,1.9-7.2,2.6C122.2,493.3,119.6,493.9,117,494.5z"/>
		<path id="dent_7" class="st1" d="M101,496.7l1.7,24.9c1.7-0.1,3.4-0.1,5.1-0.3c4.2-0.4,8.3-1.1,12.3-1.9l-3.1-25
			c-0.6,0.1-1.2,0.3-1.8,0.5c-3.3,0.7-6.6,1.2-9.9,1.5C103.8,496.6,102.4,496.6,101,496.7z"/>
		<path id="dent_8" class="st1" d="M81.1,521.2c0.4,0,0.7,0.1,1.1,0.2c4.2,0.4,8.5,0.7,12.8,0.7c2.6,0,5.1-0.2,7.7-0.4l-1.7-24.9
			c-2,0.1-4,0.3-6,0.3c-3.5,0-6.9-0.2-10.2-0.5c-0.6-0.1-1.2-0.2-1.8-0.3L81.1,521.2z"/>
		<path id="dent_9" class="st1" d="M67.3,493l-2.9,25c1.8,0.5,3.6,1,5.4,1.4c3.7,0.8,7.5,1.3,11.3,1.7l1.8-25
			c-2.7-0.3-5.5-0.7-8.1-1.2C72.3,494.4,69.8,493.7,67.3,493z"/>
		<path id="dent_10" class="st1" d="M67.3,493c-0.7-0.2-1.4-0.3-2.1-0.5c-3.1-1-6.2-2.1-9.2-3.3c-0.3-0.1-0.5-0.3-0.8-0.4l-4.4,25.1
			c2.3,0.9,4.6,1.8,7,2.5c2.1,0.7,4.4,1.1,6.6,1.7L67.3,493z"/>
	</g>
	<path id="crane" class="st2" d="M95,297C39.8,297-5,341.8-5,397S39.8,497,95,497s100-44.8,100-100S150.2,297,95,297z"/>
</g>
<g id="g3699">
	<path id="path2828" class="st3" d="M95,297c-44.7,0-82.5,29.3-95.3,69.8c-35.6,4.2-58.4,10.6-58.4,17.8c0,6.9,20.9,13.1,53.9,17.3
		c0,0,0.1,0,0.1,0c0-0.3-0.1-0.5-0.1-0.8c-0.1-1.4-0.2-2.7-0.2-4.1c0-2.6,0.1-5.1,0.3-7.6s0.5-5,0.9-7.4c4-0.8,8.2-1.5,13-2.1
		c5.6-0.8,11.7-1.4,18.2-2s13.5-1.1,20.9-1.5s15.1-0.7,23.1-1s16.3-0.3,24.8-0.3s16.8,0.1,24.8,0.3s15.8,0.5,23.1,1
		s14.4,0.9,20.9,1.5s12.7,1.3,18.3,2c3.8,0.5,7,1.1,10.3,1.7c0.4,2.5,0.7,5.1,0.9,7.7s0.4,5.2,0.4,7.8c0,1.5-0.2,3-0.3,4.5
		c0,0.2,0,0.3,0,0.5c0,0,0.1,0,0.1,0c33.5-4.2,54.7-10.4,54.7-17.4c0-7.3-23.2-13.7-59.3-17.9C177.5,326.3,139.7,297,95,297z"/>
	<path id="path3697" class="st4" d="M184.3,352c-5.7-0.6-11.1-1.4-17.2-1.9c-11-1-22.6-1.7-34.6-2.2s-24.4-0.8-37.1-0.8
		s-25.1,0.3-37.1,0.8s-23.5,1.2-34.5,2.2c-6.4,0.6-12.2,1.3-18.2,2c-2.4,4.7-4.4,9.6-6,14.8c7.2-0.7,9.6-0.9,9.6-0.9
		s16.9-1.5,26.2-2.1s18.9-1,28.9-1.3s20.4-0.5,31.1-0.5s21,0.2,31.1,0.5s19.7,0.7,28.9,1.3c9.2,0.6,17.5,1.3,26.2,2.1
		c2.9,0.2,3.1,0.4,8.8,0.8C188.7,361.6,186.7,356.7,184.3,352z"/>
</g>
<g>
	<circle class="st5" cx="50" cy="426" r="30"/>
</g>
<g>
	<circle class="st5" cx="137" cy="426" r="30"/>
</g>
<g>
	<circle class="st5" cx="95" cy="464" r="15"/>
</g>
</svg>
